<svg xmlns:xlink="http://www.w3.org/1999/xlink" preserveAspectRatio="xMidYMid meet" data-bbox="20 25.837 159.999 148.325" viewBox="20 25.837 159.999 148.325" height="200" width="200" xmlns="http://www.w3.org/2000/svg" data-type="color" role="presentation" aria-hidden="true" aria-labelledby="svgcid--wf9828g9vfau"><defs><style>#comp-k37c12jn svg [data-color="1"] {fill: #B5473F;}
#comp-k37c12jn svg [data-color="2"] {fill: #252E39;}
#comp-k37c12jn svg [data-color="3"] {fill: #FFFFFF;}</style></defs><title id="svgcid--wf9828g9vfau"></title>
    <g>
        <path d="M99.436 68.606h36.768c21.576 0 39.066 17.49 39.066 39.066v61.76l-22.694-22.694h-53.14c-21.575 0-39.066-17.49-39.066-39.066 0-21.575 17.49-39.066 39.066-39.066z" fill="#B5473F" data-color="1"></path>
        <path d="M175.271 174.162a4.726 4.726 0 01-3.346-1.386l-21.31-21.309h-51.18c-24.148 0-43.795-19.647-43.795-43.795 0-24.15 19.647-43.796 43.795-43.796h36.768c24.15 0 43.796 19.647 43.796 43.796v61.76a4.73 4.73 0 01-4.728 4.73zM99.435 73.336c-18.932 0-34.335 15.403-34.335 34.336 0 18.932 15.403 34.335 34.335 34.335h53.14a4.73 4.73 0 013.344 1.386l14.62 14.619v-50.34c0-18.933-15.403-34.336-34.336-34.336H99.435z" fill="#252E39" data-color="2"></path>
        <path d="M110.242 30.568h-41.46c-24.329 0-44.052 19.723-44.052 44.051v69.641l25.59-25.59h59.921c24.329 0 44.051-19.723 44.051-44.052.002-24.327-19.721-44.05-44.05-44.05z" fill="#FFFFFF" data-color="3"></path>
        <path d="M24.729 148.992a4.73 4.73 0 01-4.729-4.73V74.619c0-26.898 21.884-48.782 48.782-48.782h41.46c26.898 0 48.782 21.884 48.782 48.782s-21.884 48.782-48.782 48.782H52.281l-24.206 24.205a4.726 4.726 0 01-3.346 1.386zM68.782 35.298c-21.682 0-39.322 17.64-39.322 39.322v58.222l17.516-17.515a4.73 4.73 0 013.344-1.386h59.921c21.682 0 39.322-17.64 39.322-39.322s-17.64-39.322-39.322-39.322H68.782z" fill="#252E39" data-color="2"></path>
        <path fill="#252E39" d="M67.486 74.348a6.281 6.281 0 11-12.562 0 6.281 6.281 0 0112.562 0z" data-color="2"></path>
        <path fill="#252E39" d="M95.793 74.348a6.281 6.281 0 11-12.562 0 6.281 6.281 0 0112.562 0z" data-color="2"></path>
        <path fill="#252E39" d="M124.101 74.348a6.281 6.281 0 11-12.562 0 6.281 6.281 0 0112.562 0z" data-color="2"></path>
    </g>
</svg>