<svg xmlns:xlink="http://www.w3.org/1999/xlink" preserveAspectRatio="xMidYMid meet" data-bbox="21.89 20 156.22 160" viewBox="21.89 20 156.22 160" height="200" width="200" xmlns="http://www.w3.org/2000/svg" data-type="color" role="presentation" aria-hidden="true" aria-labelledby="svgcid--1oyhyw-bguhfa"><defs><style>#comp-k3fs8rl1 svg [data-color="1"] {fill: #FFFFFF;}
#comp-k3fs8rl1 svg [data-color="2"] {fill: #252E39;}
#comp-k3fs8rl1 svg [data-color="3"] {fill: #EA6F66;}</style></defs><title id="svgcid--1oyhyw-bguhfa"></title>
    <g>
        <path d="M138 54s5 14-2 20-16 13-23 13-11.348-2.022-11.348-2.022S99 83 101 75s11-21 19-22 18 1 18 1z" fill="#FFFFFF" data-color="1"></path>
        <path d="M62.984 54s-5 14 2 20 16 13 23 13 11.348-2.022 11.348-2.022S101.984 83 99.984 75s-11-21-19-22-18 1-18 1z" fill="#FFFFFF" data-color="1"></path>
        <path d="M99.998 113.82a3.132 3.132 0 01-3.132-3.132V31.137a3.132 3.132 0 016.264 0v79.551a3.131 3.131 0 01-3.132 3.132z" fill="#252E39" data-color="2"></path>
        <path d="M127.538 164.867S118 176 101 176s-25.538-9.133-25.538-9.133C67.553 166.867 56 150.909 56 143l-.859-55.096h89.717L144 144c0 7.909-8.553 20.867-16.462 20.867z" fill="#FFFFFF" data-color="1"></path>
        <path d="M100 180c-26.463 0-47.991-21.528-47.991-47.991V87.904a3.132 3.132 0 013.132-3.132h89.717a3.132 3.132 0 013.132 3.132v44.105C147.991 158.472 126.463 180 100 180zM58.274 91.037v40.972c0 23.008 18.718 41.726 41.725 41.726H100c23.008 0 41.726-18.718 41.726-41.726V91.037H58.274z" fill="#252E39" data-color="2"></path>
        <path fill="#EA6F66" d="M144.854 87.916v22.773H55.142V87.916h89.712z" data-color="3"></path>
        <path d="M144.854 113.82H55.142a3.132 3.132 0 01-3.132-3.132V87.916a3.132 3.132 0 013.132-3.132h89.712a3.132 3.132 0 013.132 3.132v22.772a3.132 3.132 0 01-3.132 3.132zm-86.58-6.265h83.447V91.048H58.274v16.507z" fill="#252E39" data-color="2"></path>
        <path d="M174.978 180H25.022a3.132 3.132 0 010-6.264h149.956a3.132 3.132 0 010 6.264z" fill="#252E39" data-color="2"></path>
        <path d="M109.549 91.027c-3.305 0-6.632-.509-9.858-1.553a3.13 3.13 0 01-2.096-2.314c-2.431-11.17 1.351-22.878 9.871-30.556 8.519-7.677 20.556-10.225 31.415-6.646a3.135 3.135 0 012.084 2.325c2.371 11.179-1.422 22.871-9.9 30.51-5.963 5.373-13.68 8.234-21.516 8.234zm-6.158-7.01c8.265 2.033 17.114-.142 23.48-5.879 6.365-5.736 9.448-14.312 8.283-22.743-8.245-2.071-17.099.099-23.494 5.863-6.395 5.762-9.472 14.342-8.269 22.759zm25.577-3.551h.031-.031z" fill="#252E39" data-color="2"></path>
        <path d="M90.451 91.027c-7.836 0-15.552-2.861-21.515-8.234-8.478-7.64-12.271-19.331-9.9-30.51a3.135 3.135 0 012.084-2.325c10.86-3.577 22.896-1.031 31.415 6.646s12.302 19.385 9.871 30.556a3.13 3.13 0 01-2.096 2.314 32.042 32.042 0 01-9.859 1.553zM73.129 78.139c6.366 5.736 15.213 7.912 23.481 5.879 1.202-8.417-1.876-16.997-8.27-22.759s-15.245-7.934-23.494-5.863c-1.165 8.431 1.918 17.007 8.283 22.743z" fill="#252E39" data-color="2"></path>
        <path fill="#EA6F66" d="M111.008 34.141c0 6.08-4.928 11.008-11.008 11.008-6.08 0-11.008-4.928-11.008-11.008 0-6.08 4.928-11.008 11.008-11.008 6.08 0 11.008 4.928 11.008 11.008z" data-color="3"></path>
        <path d="M100 48.281c-7.797 0-14.141-6.344-14.141-14.14C85.859 26.344 92.203 20 100 20s14.14 6.344 14.14 14.141c.001 7.797-6.343 14.14-14.14 14.14zm0-22.016c-4.343 0-7.876 3.533-7.876 7.876 0 4.342 3.533 7.875 7.876 7.875 4.342 0 7.875-3.533 7.875-7.875.001-4.343-3.532-7.876-7.875-7.876z" fill="#252E39" data-color="2"></path>
    </g>
</svg>