<svg xmlns:xlink="http://www.w3.org/1999/xlink" preserveAspectRatio="xMidYMid meet" data-bbox="39.63 20 120.741 160" viewBox="39.63 20 120.741 160" height="200" width="200" xmlns="http://www.w3.org/2000/svg" data-type="color" role="presentation" aria-hidden="true" aria-labelledby="svgcid--htzzal-4raj7u"><defs><style>#comp-k3fsaiy1 svg [data-color="1"] {fill: #FFFFFF;}
#comp-k3fsaiy1 svg [data-color="2"] {fill: #252E39;}
#comp-k3fsaiy1 svg [data-color="3"] {fill: #EA6F66;}</style></defs><title id="svgcid--htzzal-4raj7u"></title>
    <g>
        <path d="M134.429 65.238s4.54 12.711-1.816 18.159C126.258 88.845 117.356 97 111 97s-10-3-10-3-1.98-2.432-.164-9.695 9.987-19.067 17.251-19.974c7.263-.908 16.342.907 16.342.907z" fill="#FFFFFF" data-color="1"></path>
        <path d="M65.64 65.238s-4.54 12.711 1.816 18.159C73.811 88.845 82.714 97 89.069 97s10-3 10-3 1.98-2.432.164-9.695-9.987-19.067-17.251-19.974-16.342.907-16.342.907z" fill="#FFFFFF" data-color="1"></path>
        <path d="M109.56 177.981H94c-20 0-34.743-28.835-34.743-39.981V97.18h81.486L140 141c0 11.146-19.293 36.981-30.44 36.981z" fill="#FFFFFF" data-color="1"></path>
        <path d="M100 180c-23.579 0-42.761-19.183-42.761-42.761V97.18a2.02 2.02 0 012.019-2.019h81.485a2.02 2.02 0 012.019 2.019v40.058C142.761 160.817 123.579 180 100 180zM61.276 99.199v38.039c0 21.352 17.372 38.724 38.724 38.724s38.724-17.372 38.724-38.724V99.199H61.276z" fill="#252E39" data-color="2"></path>
        <path fill="#EA6F66" d="M140.741 97.191v20.683H59.26V97.191h81.481z" data-color="3"></path>
        <path d="M140.74 119.893H59.26a2.02 2.02 0 01-2.019-2.019V97.191a2.02 2.02 0 012.019-2.019h81.481a2.02 2.02 0 012.019 2.019v20.683a2.02 2.02 0 01-2.02 2.019zm-79.462-4.038h77.443V99.209H61.278v16.646z" fill="#252E39" data-color="2"></path>
        <path d="M158.414 180H41.586a2.02 2.02 0 010-4.038h116.828a2.02 2.02 0 010 4.038z" fill="#252E39" data-color="2"></path>
        <path d="M108.952 99.2a29.08 29.08 0 01-8.959-1.411 2.018 2.018 0 01-1.351-1.491c-2.209-10.149 1.228-20.789 8.971-27.766 7.743-6.977 18.682-9.292 28.548-6.041a2.019 2.019 0 011.343 1.498c2.155 10.161-1.293 20.786-8.998 27.729-5.419 4.882-12.433 7.482-19.554 7.482zm-6.588-4.916c8.21 2.235 17.093.152 23.439-5.566 6.346-5.719 9.34-14.337 7.968-22.735-8.194-2.272-17.08-.197-23.455 5.548-6.376 5.745-9.363 14.371-7.952 22.753z" fill="#252E39" data-color="2"></path>
        <path d="M91.048 99.2c-7.122 0-14.134-2.599-19.553-7.483-7.705-6.943-11.153-17.568-8.998-27.729a2.017 2.017 0 011.343-1.498c9.866-3.251 20.804-.935 28.548 6.041 7.743 6.977 11.18 17.617 8.971 27.766a2.018 2.018 0 01-1.351 1.491 29.061 29.061 0 01-8.96 1.412zM66.229 65.983c-1.372 8.398 1.622 17.016 7.968 22.735 6.345 5.719 15.227 7.802 23.439 5.566 1.411-8.382-1.576-17.008-7.952-22.753-6.376-5.745-15.264-7.822-23.455-5.548z" fill="#252E39" data-color="2"></path>
        <path fill="#FFFFFF" d="M140.742 163.685v14.296H59.257v-14.296h81.485z" data-color="1"></path>
        <path d="M140.743 180H59.257a2.02 2.02 0 01-2.019-2.019v-14.297a2.02 2.02 0 012.019-2.019h81.485a2.02 2.02 0 012.019 2.019v14.297a2.018 2.018 0 01-2.018 2.019zm-79.467-4.037h77.448v-10.259H61.276v10.259z" fill="#252E39" data-color="2"></path>
        <path d="M100 97.926a2.02 2.02 0 01-2.019-2.019V29.943a2.02 2.02 0 014.038 0v65.965A2.019 2.019 0 01100 97.926z" fill="#252E39" data-color="2"></path>
        <path d="M106.659 51H93.341a6.536 6.536 0 01-6.536-6.536V22.026h26.39v22.438A6.536 6.536 0 01106.659 51z" fill="#EA6F66" data-color="3"></path>
        <path d="M100 60.776c-8.389 0-15.213-6.825-15.213-15.213V22.026a2.02 2.02 0 012.019-2.019h26.389a2.02 2.02 0 012.019 2.019v23.537c-.001 8.388-6.825 15.213-15.214 15.213zM88.824 24.044v21.518c0 6.163 5.013 11.176 11.176 11.176s11.176-5.013 11.176-11.176V24.044H88.824z" fill="#252E39" data-color="2"></path>
        <path d="M113.191 41.299v4.264c0 7.284-5.907 13.191-13.191 13.191s-13.19-5.907-13.19-13.191V22.019h.498l25.883 19.28z" fill="#EA6F66" data-color="3"></path>
        <path d="M100.001 60.772c-8.386 0-15.209-6.823-15.209-15.209V22.019A2.02 2.02 0 0186.811 20h.498c.435 0 .858.14 1.206.4l25.883 19.28c.512.381.813.981.813 1.619v4.264c-.001 8.386-6.824 15.209-15.21 15.209zM88.829 25.669v19.894c0 6.16 5.012 11.172 11.172 11.172s11.172-5.012 11.172-11.172v-3.251L88.829 25.669z" fill="#252E39" data-color="2"></path>
        <path d="M86.81 41.299v4.264c0 7.284 5.907 13.191 13.191 13.191s13.191-5.907 13.191-13.191V22.019h-.498L86.81 41.299z" fill="#EA6F66" data-color="3"></path>
        <path d="M100.001 60.772c-8.386 0-15.209-6.823-15.209-15.209v-4.264c0-.638.301-1.238.813-1.619l25.883-19.28c.348-.26.771-.4 1.206-.4h.498a2.02 2.02 0 012.019 2.019v23.544c-.001 8.386-6.824 15.209-15.21 15.209zm-11.172-18.46v3.251c0 6.16 5.012 11.172 11.172 11.172s11.172-5.012 11.172-11.172V25.669L88.829 42.312z" fill="#252E39" data-color="2"></path>
    </g>
</svg>