<svg xmlns:xlink="http://www.w3.org/1999/xlink" preserveAspectRatio="xMidYMid meet" data-bbox="25.303 20.5 149.393 160" viewBox="25.303 20.5 149.393 160" height="200" width="200" xmlns="http://www.w3.org/2000/svg" data-type="color" role="presentation" aria-hidden="true" aria-labelledby="svgcid-zchhzj3gvzx6"><defs><style>#comp-k3fsatl1 svg [data-color="1"] {fill: #252E39;}
#comp-k3fsatl1 svg [data-color="2"] {fill: #EA6F66;}
#comp-k3fsatl1 svg [data-color="3"] {fill: #FFFFFF;}</style></defs><title id="svgcid-zchhzj3gvzx6"></title>
    <g>
        <path d="M100 120.767a1.43 1.43 0 01-1.429-1.429V37.666a1.43 1.43 0 012.858 0v81.672a1.43 1.43 0 01-1.429 1.429z" fill="#252E39" data-color="1"></path>
        <path d="M102.803 58.061h-5.606a6.536 6.536 0 01-6.536-6.536V32.062h18.679v19.462a6.538 6.538 0 01-6.537 6.537z" fill="#EA6F66" data-color="2"></path>
        <path d="M100 59.489c-5.938 0-10.768-4.83-10.768-10.768V32.062c0-.789.64-1.429 1.429-1.429h18.678c.789 0 1.429.64 1.429 1.429v16.659c0 5.938-4.83 10.768-10.768 10.768zm-7.91-25.998v15.23c0 4.362 3.548 7.91 7.91 7.91s7.91-3.548 7.91-7.91v-15.23H92.09z" fill="#252E39" data-color="1"></path>
        <path d="M109.337 45.704v3.018a9.337 9.337 0 01-18.672 0V32.058h.352l18.32 13.646z" fill="#EA6F66" data-color="2"></path>
        <path d="M100.001 59.487c-5.936 0-10.765-4.829-10.765-10.765V32.058c0-.789.64-1.429 1.429-1.429h.352c.308 0 .607.099.854.283l18.32 13.646c.362.27.575.695.575 1.146v3.018c0 5.936-4.829 10.765-10.765 10.765zm-7.908-24.846v14.081c0 4.36 3.547 7.907 7.907 7.907s7.907-3.547 7.907-7.907v-2.301l-15.814-11.78z" fill="#252E39" data-color="1"></path>
        <path d="M90.664 45.704v3.018a9.337 9.337 0 0018.672 0V32.058h-.352l-18.32 13.646z" fill="#EA6F66" data-color="2"></path>
        <path d="M100.001 59.487c-5.936 0-10.765-4.829-10.765-10.765v-3.018c0-.451.213-.876.575-1.146l18.32-13.646c.247-.184.546-.283.854-.283h.352c.789 0 1.429.64 1.429 1.429v16.664c0 5.936-4.829 10.765-10.765 10.765zm-7.908-13.066v2.301c0 4.36 3.547 7.907 7.907 7.907s7.907-3.547 7.907-7.907V34.641l-15.814 11.78z" fill="#252E39" data-color="1"></path>
        <path d="M110.392 129.01a1.43 1.43 0 01-1.429-1.429V105.97a23.146 23.146 0 0111.994-20.283 20.288 20.288 0 0010.513-17.779v-8.442a1.43 1.43 0 012.858 0v8.442a23.147 23.147 0 01-11.994 20.283 20.29 20.29 0 00-10.514 17.779v21.611a1.427 1.427 0 01-1.428 1.429z" fill="#252E39" data-color="1"></path>
        <path d="M137.912 88.438a11.913 11.913 0 01-11.273-3.874c1.322-3.905 4.659-6.998 8.988-7.842s8.583.768 11.276 3.89a11.912 11.912 0 01-8.991 7.826z" fill="#FFFFFF" data-color="3"></path>
        <path d="M135.649 90.085a13.409 13.409 0 01-10.087-4.582 1.427 1.427 0 01-.277-1.397 13.34 13.34 0 0110.068-8.786c4.684-.913 9.524.756 12.631 4.359.332.385.435.918.269 1.398a13.394 13.394 0 01-10.068 8.763c-.843.165-1.692.245-2.536.245zm-7.355-5.848a10.533 10.533 0 009.344 2.799 10.532 10.532 0 007.607-6.105 10.486 10.486 0 00-9.345-2.806 10.483 10.483 0 00-7.606 6.112z" fill="#252E39" data-color="1"></path>
        <path d="M135.686 65.889h-4.198a4.895 4.895 0 01-4.895-4.895V46.42h13.988v14.574a4.895 4.895 0 01-4.895 4.895z" fill="#EA6F66" data-color="2"></path>
        <path d="M133.587 67.318c-4.644 0-8.423-3.778-8.423-8.423V46.42c0-.789.64-1.429 1.429-1.429h13.987c.789 0 1.429.64 1.429 1.429v12.475c.001 4.645-3.778 8.423-8.422 8.423zm-5.565-19.469v11.046a5.57 5.57 0 005.565 5.565 5.571 5.571 0 005.565-5.565V47.849h-11.13z" fill="#252E39" data-color="1"></path>
        <path d="M140.579 56.636v2.26a6.993 6.993 0 01-13.984 0V46.417h.264l13.72 10.219z" fill="#EA6F66" data-color="2"></path>
        <path d="M133.588 67.316c-4.643 0-8.42-3.777-8.42-8.42V46.417c0-.789.64-1.429 1.429-1.429h.264c.308 0 .607.099.854.283l13.719 10.219c.362.27.575.695.575 1.146v2.26c-.001 4.643-3.778 8.42-8.421 8.42zm-5.563-18.25v9.83a5.57 5.57 0 005.563 5.563 5.57 5.57 0 005.563-5.563v-1.543l-11.126-8.287z" fill="#252E39" data-color="1"></path>
        <path d="M126.596 56.636v2.26a6.993 6.993 0 0013.984 0V46.417h-.264l-13.72 10.219z" fill="#EA6F66" data-color="2"></path>
        <path d="M133.588 67.316c-4.643 0-8.42-3.777-8.42-8.42v-2.26c0-.451.213-.876.575-1.146l13.719-10.219c.247-.184.546-.283.854-.283h.264c.789 0 1.429.64 1.429 1.429v12.479c-.001 4.643-3.778 8.42-8.421 8.42zm-5.563-9.963v1.543a5.57 5.57 0 005.563 5.563 5.57 5.57 0 005.563-5.563v-9.83l-11.126 8.287z" fill="#252E39" data-color="1"></path>
        <path d="M89.608 129.01a1.43 1.43 0 01-1.429-1.429V105.97c0-7.4-4.028-14.213-10.514-17.779a23.146 23.146 0 01-11.994-20.283v-8.442a1.43 1.43 0 012.858 0v8.442c0 7.4 4.028 14.213 10.513 17.779a23.146 23.146 0 0111.994 20.283v21.611a1.427 1.427 0 01-1.428 1.429z" fill="#252E39" data-color="1"></path>
        <path d="M62.088 88.438a11.913 11.913 0 0011.273-3.874c-1.322-3.905-4.659-6.998-8.988-7.842s-8.583.768-11.276 3.89a11.912 11.912 0 008.991 7.826z" fill="#FFFFFF" data-color="3"></path>
        <path d="M64.351 90.085c-.844 0-1.693-.08-2.536-.245a13.396 13.396 0 01-10.068-8.763 1.427 1.427 0 01.269-1.398c3.107-3.602 7.948-5.272 12.631-4.359a13.34 13.34 0 0110.068 8.786 1.427 1.427 0 01-.277 1.397 13.409 13.409 0 01-10.087 4.582zm-9.597-9.155a10.532 10.532 0 007.607 6.105 10.542 10.542 0 009.344-2.799 10.483 10.483 0 00-7.606-6.112c-3.4-.661-6.907.407-9.345 2.806z" fill="#252E39" data-color="1"></path>
        <path d="M64.314 65.889h4.198a4.895 4.895 0 004.895-4.895V46.42H59.419v14.574a4.895 4.895 0 004.895 4.895z" fill="#EA6F66" data-color="2"></path>
        <path d="M66.413 67.318c-4.644 0-8.422-3.778-8.422-8.423V46.42c0-.789.64-1.429 1.429-1.429h13.987c.789 0 1.429.64 1.429 1.429v12.475c-.001 4.645-3.779 8.423-8.423 8.423zm-5.565-19.469v11.046a5.57 5.57 0 005.565 5.565 5.57 5.57 0 005.565-5.565V47.849h-11.13z" fill="#252E39" data-color="1"></path>
        <path d="M59.421 56.636v2.26a6.993 6.993 0 0013.984 0V46.417h-.265L59.421 56.636z" fill="#EA6F66" data-color="2"></path>
        <path d="M66.412 67.316c-4.643 0-8.42-3.777-8.42-8.42v-2.26c0-.451.213-.876.575-1.146l13.719-10.219c.247-.184.546-.283.854-.283h.264c.789 0 1.429.64 1.429 1.429v12.479c0 4.643-3.778 8.42-8.421 8.42zm-5.562-9.963v1.543a5.57 5.57 0 005.563 5.563 5.57 5.57 0 005.563-5.563v-9.83L60.85 57.353z" fill="#252E39" data-color="1"></path>
        <path d="M73.404 56.636v2.26a6.993 6.993 0 01-13.984 0V46.417h.264l13.72 10.219z" fill="#EA6F66" data-color="2"></path>
        <path d="M66.412 67.316c-4.643 0-8.42-3.777-8.42-8.42V46.417c0-.789.64-1.429 1.429-1.429h.264c.308 0 .607.099.854.283L74.257 55.49c.362.27.575.695.575 1.146v2.26c.001 4.643-3.777 8.42-8.42 8.42zm-5.562-18.25v9.83a5.57 5.57 0 005.563 5.563 5.57 5.57 0 005.563-5.563v-1.543L60.85 49.066z" fill="#252E39" data-color="1"></path>
        <path d="M127.948 156.232a1.428 1.428 0 01-1.426-1.363l-1.208-26.153c-.304-6.584 1.974-12.893 6.415-17.764s10.513-7.721 17.097-8.025l16.074-.742c.797-.04 1.457.574 1.493 1.362s-.573 1.457-1.362 1.493l-16.074.742a21.675 21.675 0 00-15.117 7.096 21.674 21.674 0 00-5.672 15.707l1.208 26.153a1.429 1.429 0 01-1.362 1.493l-.066.001z" fill="#252E39" data-color="1"></path>
        <path d="M72.052 156.232l-.067-.001a1.43 1.43 0 01-1.362-1.493l1.208-26.153a21.674 21.674 0 00-5.672-15.707 21.677 21.677 0 00-15.117-7.096l-16.074-.742a1.43 1.43 0 01.131-2.855l16.074.742c6.584.304 12.657 3.154 17.097 8.025a24.516 24.516 0 016.415 17.764l-1.208 26.153a1.427 1.427 0 01-1.425 1.363z" fill="#252E39" data-color="1"></path>
        <path d="M142.951 100.069a5.803 5.803 0 01-2.384 5.296 5.785 5.785 0 01-3.402-4.711 5.784 5.784 0 012.392-5.296 5.803 5.803 0 013.394 4.711z" fill="#FFFFFF" data-color="3"></path>
        <path d="M140.567 106.793c-.197 0-.395-.04-.58-.123a7.234 7.234 0 01-4.244-5.873 7.232 7.232 0 012.983-6.603 1.432 1.432 0 011.417-.14 7.261 7.261 0 014.229 5.871 7.26 7.26 0 01-2.969 6.598c-.247.179-.541.27-.836.27zm-.839-9.694c-.841.907-1.269 2.15-1.142 3.411s.796 2.393 1.801 3.114a4.399 4.399 0 001.142-3.411 4.396 4.396 0 00-1.801-3.114z" fill="#252E39" data-color="1"></path>
        <path d="M57.049 100.069a5.803 5.803 0 002.384 5.296c1.835-.816 3.186-2.573 3.402-4.711s-.757-4.13-2.392-5.296a5.803 5.803 0 00-3.394 4.711z" fill="#FFFFFF" data-color="3"></path>
        <path d="M59.433 106.793c-.295 0-.588-.091-.836-.27a7.26 7.26 0 01-2.969-6.598 7.26 7.26 0 014.229-5.871 1.43 1.43 0 011.417.14 7.23 7.23 0 01-1.261 12.476 1.42 1.42 0 01-.58.123zm-.962-6.58a4.392 4.392 0 001.142 3.411 4.376 4.376 0 00.659-6.525 4.396 4.396 0 00-1.801 3.114z" fill="#252E39" data-color="1"></path>
        <path d="M49.717 101.135v4.955a5.778 5.778 0 01-5.778 5.778H26.737v-16.51H43.94a5.776 5.776 0 015.777 5.777z" fill="#EA6F66" data-color="2"></path>
        <path d="M41.462 113.296H26.737a1.43 1.43 0 01-1.429-1.429v-16.51c0-.789.64-1.429 1.429-1.429h14.725c5.34 0 9.684 4.344 9.684 9.684s-4.344 9.684-9.684 9.684zm-13.296-2.857h13.296c3.764 0 6.826-3.062 6.826-6.826s-3.062-6.826-6.826-6.826H28.166v13.652z" fill="#252E39" data-color="1"></path>
        <path d="M38.795 95.359h2.668a8.254 8.254 0 010 16.506h-14.73v-.311l12.062-16.195z" fill="#EA6F66" data-color="2"></path>
        <path d="M41.462 113.293h-14.73a1.43 1.43 0 01-1.429-1.429v-.311c0-.308.099-.607.283-.854l12.062-16.194a1.43 1.43 0 011.146-.575h2.668c5.338 0 9.681 4.343 9.681 9.681.001 5.339-4.342 9.682-9.681 9.682zm-14.729-1.74h.014-.014zm2.614-1.118h12.116c3.763 0 6.824-3.061 6.824-6.824s-3.061-6.824-6.824-6.824h-1.95l-10.166 13.648z" fill="#252E39" data-color="1"></path>
        <path d="M38.795 111.864h2.668a8.254 8.254 0 000-16.506h-14.73v.311l12.062 16.195z" fill="#EA6F66" data-color="2"></path>
        <path d="M41.462 113.293h-2.668a1.43 1.43 0 01-1.146-.575L25.587 96.524a1.428 1.428 0 01-.283-.854v-.312c0-.789.64-1.429 1.429-1.429h14.73c5.338 0 9.681 4.343 9.681 9.681 0 5.34-4.343 9.683-9.682 9.683zm-1.95-2.858h1.95c3.763 0 6.824-3.061 6.824-6.824s-3.061-6.824-6.824-6.824H29.346l10.166 13.648z" fill="#252E39" data-color="1"></path>
        <path d="M150.283 106.09v-4.955a5.778 5.778 0 015.778-5.778h17.203v16.51H156.06a5.777 5.777 0 01-5.777-5.777z" fill="#EA6F66" data-color="2"></path>
        <path d="M173.263 113.296h-14.725c-5.34 0-9.684-4.344-9.684-9.684s4.344-9.684 9.684-9.684h14.725c.789 0 1.429.64 1.429 1.429v16.511c0 .789-.64 1.428-1.429 1.428zm-14.725-16.51c-3.764 0-6.826 3.062-6.826 6.826s3.062 6.826 6.826 6.826h13.296V96.786h-13.296z" fill="#252E39" data-color="1"></path>
        <path d="M161.205 111.865h-2.668a8.254 8.254 0 010-16.506h14.73v.311l-12.062 16.195z" fill="#EA6F66" data-color="2"></path>
        <path d="M161.205 113.294h-2.668c-5.338 0-9.681-4.343-9.681-9.681s4.343-9.681 9.681-9.681h14.73c.789 0 1.429.64 1.429 1.429v.312c0 .308-.099.607-.283.854l-12.062 16.193a1.429 1.429 0 01-1.146.574zm-2.667-16.505c-3.763 0-6.824 3.061-6.824 6.824s3.061 6.824 6.824 6.824h1.95l10.166-13.647-12.116-.001z" fill="#252E39" data-color="1"></path>
        <path d="M161.205 95.36h-2.668a8.254 8.254 0 000 16.506h14.73v-.311L161.205 95.36z" fill="#EA6F66" data-color="2"></path>
        <path d="M173.267 113.294h-14.73c-5.338 0-9.681-4.343-9.681-9.681s4.343-9.681 9.681-9.681h2.668c.451 0 .876.213 1.146.575l12.062 16.194c.184.247.283.546.283.854v.311c0 .788-.639 1.428-1.429 1.428zm-14.729-16.505c-3.763 0-6.824 3.061-6.824 6.824s3.061 6.824 6.824 6.824h12.116L160.489 96.79l-1.951-.001z" fill="#252E39" data-color="1"></path>
        <path d="M120.396 179.071H79.604c-14.054 0-25.446-24.017-25.446-38.071v-19.119h91.685V141c-.001 14.054-11.393 38.071-25.447 38.071z" fill="#FFFFFF" data-color="3"></path>
        <path d="M109.483 180.5H90.517c-20.837 0-37.788-16.952-37.788-37.788v-20.831c0-.789.64-1.429 1.429-1.429h91.685c.789 0 1.429.64 1.429 1.429v20.831c-.001 20.837-16.952 37.788-37.789 37.788zm-53.897-57.19v19.402c0 19.261 15.67 34.93 34.93 34.93h18.966c19.261 0 34.93-15.67 34.93-34.93V123.31H55.586z" fill="#252E39" data-color="1"></path>
        <path d="M119.22 116.99c-5.279 4.757-12.474 6.042-18.785 4a19.132 19.132 0 015.91-18.288 19.13 19.13 0 0118.802-3.98c1.376 6.489-.648 13.511-5.927 18.268z" fill="#FFFFFF" data-color="3"></path>
        <path d="M106.336 123.348c-2.126 0-4.265-.327-6.341-.999a1.428 1.428 0 01-.956-1.056c-1.564-7.184.869-14.715 6.35-19.653 5.48-4.937 13.222-6.577 20.206-4.276.483.159.845.563.951 1.06 1.525 7.191-.915 14.712-6.369 19.626-3.836 3.458-8.801 5.298-13.841 5.298zm-4.663-3.48c5.812 1.583 12.098.108 16.59-3.939 4.492-4.048 6.611-10.148 5.64-16.092a17.764 17.764 0 00-16.602 3.927c-4.512 4.066-6.626 10.172-5.628 16.104zm17.547-2.878h.014-.014z" fill="#252E39" data-color="1"></path>
        <path d="M80.78 116.99c5.279 4.757 12.474 6.042 18.785 4a19.132 19.132 0 00-5.91-18.288 19.13 19.13 0 00-18.802-3.98c-1.376 6.489.648 13.511 5.927 18.268z" fill="#FFFFFF" data-color="3"></path>
        <path d="M93.664 123.348c-5.041 0-10.005-1.84-13.841-5.296-5.454-4.914-7.894-12.435-6.369-19.626a1.43 1.43 0 01.951-1.06c6.984-2.301 14.726-.662 20.206 4.276 5.48 4.939 7.913 12.469 6.35 19.653a1.43 1.43 0 01-.956 1.056 20.63 20.63 0 01-6.341.997zm-11.927-7.419c4.491 4.047 10.778 5.523 16.59 3.939.999-5.933-1.116-12.038-5.628-16.105-4.513-4.066-10.804-5.536-16.602-3.927-.971 5.945 1.148 12.045 5.64 16.093z" fill="#252E39" data-color="1"></path>
        <path d="M113.338 82.031a13.321 13.321 0 01-13.036 2.776c-.98-4.504.438-9.39 4.101-12.691a13.276 13.276 0 0113.048-2.762c.955 4.503-.45 9.376-4.113 12.677z" fill="#FFFFFF" data-color="3"></path>
        <path d="M104.396 86.881c-1.52 0-3.05-.234-4.534-.714a1.428 1.428 0 01-.956-1.056c-1.118-5.139.622-10.525 4.541-14.056 3.92-3.531 9.458-4.703 14.451-3.058.483.159.845.563.951 1.06a14.81 14.81 0 01-4.554 14.036 14.802 14.802 0 01-9.899 3.788zm-2.847-3.203a11.947 11.947 0 0010.833-2.708 11.943 11.943 0 003.817-10.493 11.892 11.892 0 00-10.839 2.701 11.89 11.89 0 00-3.811 10.5z" fill="#252E39" data-color="1"></path>
        <path d="M86.662 82.031a13.321 13.321 0 0013.036 2.776c.98-4.504-.438-9.39-4.101-12.691a13.276 13.276 0 00-13.048-2.762c-.955 4.503.45 9.376 4.113 12.677z" fill="#FFFFFF" data-color="3"></path>
        <path d="M95.604 86.881a14.796 14.796 0 01-9.898-3.788 14.81 14.81 0 01-4.554-14.036 1.43 1.43 0 01.951-1.06c4.994-1.646 10.533-.474 14.451 3.058 3.919 3.532 5.659 8.918 4.541 14.056a1.43 1.43 0 01-.956 1.056c-1.484.48-3.015.714-4.535.714zM83.802 70.477c-.541 3.89.88 7.847 3.817 10.493a11.946 11.946 0 0010.833 2.708 11.89 11.89 0 00-3.811-10.5 11.89 11.89 0 00-10.839-2.701z" fill="#252E39" data-color="1"></path>
        <path fill="#EA6F66" d="M145.839 121.888v14.639H54.16v-14.639h91.679z" data-color="2"></path>
        <path d="M145.84 137.956H54.16a1.43 1.43 0 01-1.429-1.429v-14.639c0-.789.64-1.429 1.429-1.429h91.679c.789 0 1.429.64 1.429 1.429v14.639c0 .789-.639 1.429-1.428 1.429zm-90.251-2.857h88.821v-11.782H55.589v11.782z" fill="#252E39" data-color="1"></path>
        <path d="M155.634 180.5H44.366a1.43 1.43 0 010-2.858h111.267a1.43 1.43 0 01.001 2.858z" fill="#252E39" data-color="1"></path>
        <path fill="#FFFFFF" d="M145.842 168.952v10.119H54.158v-10.119h91.684z" data-color="3"></path>
        <path d="M145.842 180.5H54.158a1.43 1.43 0 01-1.429-1.429v-10.119c0-.789.64-1.429 1.429-1.429h91.684c.789 0 1.429.64 1.429 1.429v10.119a1.43 1.43 0 01-1.429 1.429zm-90.255-2.858h88.826v-7.261H55.587v7.261z" fill="#252E39" data-color="1"></path>
        <path fill="#252E39" d="M101.894 26.183a1.894 1.894 0 11-3.788 0 1.894 1.894 0 013.788 0z" data-color="1"></path>
        <path fill="#252E39" d="M106.501 22.394a1.894 1.894 0 11-3.788 0 1.894 1.894 0 013.788 0z" data-color="1"></path>
        <path fill="#252E39" d="M97.287 22.394a1.894 1.894 0 11-3.788 0 1.894 1.894 0 013.788 0z" data-color="1"></path>
        <path d="M60.524 122.133a11.649 11.649 0 01-11.622-.87 11.609 11.609 0 016.557-9.644 11.61 11.61 0 0111.628.884 11.645 11.645 0 01-6.563 9.63z" fill="#FFFFFF" data-color="3"></path>
        <path d="M55.478 124.709a13.12 13.12 0 01-7.379-2.265 1.43 1.43 0 01-.622-1.282 13.07 13.07 0 0120.421-9.836c.419.288.653.778.615 1.285a13.129 13.129 0 01-7.368 10.809 13.063 13.063 0 01-5.667 1.289zm-5.056-4.183c2.9 1.64 6.46 1.776 9.482.319a10.266 10.266 0 005.661-7.613 10.219 10.219 0 00-9.485-.326 10.217 10.217 0 00-5.658 7.62z" fill="#252E39" data-color="1"></path>
        <path d="M139.476 122.133a11.649 11.649 0 0011.622-.87 11.609 11.609 0 00-6.557-9.644 11.61 11.61 0 00-11.628.884 11.645 11.645 0 006.563 9.63z" fill="#FFFFFF" data-color="3"></path>
        <path d="M144.522 124.709c-1.935 0-3.874-.426-5.667-1.29a13.128 13.128 0 01-7.368-10.809 1.431 1.431 0 01.615-1.285c3.841-2.644 8.844-3.025 13.058-.995s7.035 6.18 7.362 10.831c.036.508-.201.996-.622 1.282a13.108 13.108 0 01-7.378 2.266zm-10.087-11.477a10.264 10.264 0 005.661 7.613 10.264 10.264 0 009.482-.319 10.218 10.218 0 00-5.657-7.62 10.22 10.22 0 00-9.486.326z" fill="#252E39" data-color="1"></path>
    </g>
</svg>