<svg xmlns:xlink="http://www.w3.org/1999/xlink" preserveAspectRatio="xMidYMid meet" data-bbox="20 31.146 159.999 137.709" viewBox="20 31.146 159.999 137.709" height="200" width="200" xmlns="http://www.w3.org/2000/svg" data-type="color" role="presentation" aria-hidden="true" aria-labelledby="svgcid--l927ghd0nba5"><defs><style>#comp-k37c6cbg svg [data-color="1"] {fill: #FFFFFF;}
#comp-k37c6cbg svg [data-color="2"] {fill: #252E39;}
#comp-k37c6cbg svg [data-color="3"] {fill: #B5473F;}</style></defs><title id="svgcid--l927ghd0nba5"></title>
    <g>
        <path fill="#FFFFFF" d="M157.593 73.145v73.813h-118.1V73.145h118.1z" data-color="1"></path>
        <path d="M157.593 151.096h-118.1a4.137 4.137 0 01-4.137-4.137V73.145a4.137 4.137 0 014.137-4.137h118.1a4.137 4.137 0 014.137 4.137v73.813a4.138 4.138 0 01-4.137 4.138zM43.63 142.821h109.826V77.283H43.63v65.538z" fill="#252E39" data-color="2"></path>
        <path d="M164 164.717H35c-2.372 0-10.863-9.345-10.863-11.717v-6.053h151.726V154c0 2.372-9.491 10.717-11.863 10.717z" fill="#FFFFFF" data-color="1"></path>
        <path d="M158.094 168.855H41.906c-12.079 0-21.906-9.827-21.906-21.907a4.137 4.137 0 014.137-4.137h151.725a4.137 4.137 0 014.137 4.137c.001 12.079-9.826 21.907-21.905 21.907zm-129.178-17.77c1.757 5.5 6.915 9.495 12.99 9.495h116.187c6.075 0 11.233-3.995 12.99-9.495H28.916z" fill="#252E39" data-color="2"></path>
        <path fill="#FFFFFF" d="M139.705 91.589v36.925H57.38V91.589h82.325z" data-color="1"></path>
        <path d="M139.706 132.651H57.38a4.137 4.137 0 01-4.137-4.137V91.589a4.137 4.137 0 014.137-4.137h82.325a4.137 4.137 0 014.137 4.137v36.925a4.136 4.136 0 01-4.136 4.137zm-78.188-8.275h74.05v-28.65h-74.05v28.65z" fill="#252E39" data-color="2"></path>
        <path d="M98.555 41.837l-.002-.002c-8.752-8.752-22.942-8.752-31.694 0s-8.752 22.942 0 31.694l-.02.02 31.694 31.694 31.694-31.694c8.752-8.752 8.752-22.942 0-31.694-8.746-8.745-22.919-8.749-31.672-.018z" fill="#B5473F" data-color="3"></path>
        <path d="M98.532 109.381a4.135 4.135 0 01-2.925-1.212L63.914 76.475a4.388 4.388 0 01-.352-.399c-4.779-4.969-7.405-11.479-7.405-18.393 0-7.092 2.762-13.759 7.777-18.773 9.425-9.427 24.236-10.27 34.625-2.526 10.387-7.716 25.182-6.865 34.593 2.546 10.351 10.352 10.351 27.194 0 37.545l-31.694 31.694a4.139 4.139 0 01-2.926 1.212zM70.108 70.968l28.425 28.425 28.769-28.768c7.124-7.125 7.124-18.718 0-25.844-7.114-7.113-18.699-7.121-25.826-.014a4.137 4.137 0 01-5.847-.004c-7.127-7.125-18.719-7.125-25.845-.002-3.452 3.452-5.353 8.042-5.353 12.922s1.901 9.47 5.353 12.921c.116.115.224.236.324.364z" fill="#252E39" data-color="2"></path>
    </g>
</svg>